<svg width="49" height="48" viewBox="0 0 49 48" fill="none" xmlns="http://www.w3.org/2000/svg">
<path d="M12.5 19.9999C12.5 19.4694 12.7107 18.9607 13.0858 18.5857C13.4608 18.2106 13.9695 17.9999 14.5 17.9999H37.68L33.08 13.4199C32.7034 13.0433 32.4918 12.5325 32.4918 11.9999C32.4918 11.4673 32.7034 10.9565 33.08 10.5799C33.4566 10.2033 33.9674 9.9917 34.5 9.9917C35.0326 9.9917 35.5434 10.2033 35.92 10.5799L43.92 18.5799C44.1975 18.8611 44.3855 19.2183 44.4602 19.6063C44.535 19.9942 44.4931 20.3957 44.34 20.7599C44.1899 21.1251 43.9351 21.4378 43.6077 21.6584C43.2802 21.8791 42.8948 21.9979 42.5 21.9999H14.5C13.9695 21.9999 13.4608 21.7892 13.0858 21.4141C12.7107 21.039 12.5 20.5303 12.5 19.9999ZM4.65997 27.2399C4.81001 26.8746 5.0648 26.562 5.39224 26.3413C5.71968 26.1207 6.10511 26.0019 6.49997 25.9999H34.5C35.0304 25.9999 35.5391 26.2106 35.9142 26.5857C36.2893 26.9607 36.5 27.4694 36.5 27.9999C36.5 28.5303 36.2893 29.039 35.9142 29.4141C35.5391 29.7892 35.0304 29.9999 34.5 29.9999H11.32L15.92 34.5799C16.1074 34.7658 16.2562 34.987 16.3577 35.2307C16.4593 35.4744 16.5116 35.7359 16.5116 35.9999C16.5116 36.2639 16.4593 36.5253 16.3577 36.769C16.2562 37.0128 16.1074 37.234 15.92 37.4199C15.734 37.6073 15.5128 37.7561 15.2691 37.8577C15.0254 37.9592 14.764 38.0115 14.5 38.0115C14.2359 38.0115 13.9745 37.9592 13.7308 37.8577C13.4871 37.7561 13.2659 37.6073 13.08 37.4199L5.07997 29.4199C4.80245 29.1386 4.61446 28.7815 4.53971 28.3935C4.46496 28.0055 4.50681 27.6041 4.65997 27.2399Z" fill="#222222"/>
</svg>
