<svg width="24" height="24" viewBox="0 0 24 24" fill="none" xmlns="http://www.w3.org/2000/svg">
<path d="M23.25 9.00003C23.25 8.50274 23.0524 8.02583 22.7008 7.6742C22.3492 7.32257 21.8723 7.12503 21.375 7.12503H19.785C20.0172 6.6594 20.1354 6.14529 20.13 5.62503C20.136 5.18395 20.0542 4.74609 19.8895 4.33687C19.7249 3.92764 19.4805 3.55522 19.1707 3.24122C18.8609 2.92721 18.4918 2.6779 18.0848 2.50774C17.6778 2.33759 17.2411 2.24998 16.8 2.25003C15.8679 2.21753 14.9423 2.41545 14.105 2.82624C13.2677 3.23702 12.5447 3.848 12 4.60503C11.4553 3.848 10.7323 3.23702 9.895 2.82624C9.05772 2.41545 8.13204 2.21753 7.19999 2.25003C6.31682 2.25003 5.46982 2.60086 4.84533 3.22536C4.22083 3.84986 3.86999 4.69685 3.86999 5.58003C3.86458 6.10029 3.98283 6.6144 4.21499 7.08002H2.62499C2.37493 7.07995 2.12738 7.1299 1.89691 7.22693C1.66644 7.32396 1.45771 7.46611 1.283 7.64501C1.10829 7.82392 0.971127 8.03596 0.879591 8.26867C0.788054 8.50137 0.743989 8.75004 0.749991 9.00003V12.75H2.62499V19.935C2.64058 20.4218 2.84498 20.8835 3.19494 21.2222C3.54489 21.561 4.01293 21.7503 4.49999 21.75H19.5C19.9973 21.75 20.4742 21.5525 20.8258 21.2009C21.1774 20.8492 21.375 20.3723 21.375 19.875V12.69H23.25V9.00003ZM16.8 4.12503C17.1978 4.12503 17.5793 4.28306 17.8607 4.56436C18.142 4.84567 18.3 5.2272 18.3 5.62503C18.3 6.02285 18.142 6.40438 17.8607 6.68569C17.5793 6.96699 17.1978 7.12503 16.8 7.12503H13.02C13.1538 6.2396 13.6182 5.43779 14.3196 4.88111C15.021 4.32443 15.9073 4.05426 16.8 4.12503ZM7.19999 4.12503C8.09266 4.05426 8.97898 4.32443 9.6804 4.88111C10.3818 5.43779 10.8462 6.2396 10.98 7.12503H7.19999C6.86859 7.0495 6.57267 6.86366 6.3607 6.59795C6.14874 6.33224 6.0333 6.00242 6.0333 5.66253C6.0333 5.32263 6.14874 4.99281 6.3607 4.7271C6.57267 4.46139 6.86859 4.27555 7.19999 4.20003V4.12503ZM2.62499 9.00003H9.17999V10.815H2.62499V9.00003ZM9.17999 19.935H4.49999V12.69H9.17999V19.935ZM11.07 19.935V9.00003H12.93V19.935H11.07ZM19.5 19.935H14.82V12.69H19.5V19.935ZM21.375 10.935H14.82V9.00003H21.375V10.935Z" fill="#EE378A"/>
</svg>
