<svg width="24" height="24" viewBox="0 0 24 24" fill="none" xmlns="http://www.w3.org/2000/svg">
<path d="M2.62503 12C2.62503 11.7016 2.74356 11.4154 2.95454 11.2045C3.16551 10.9935 3.45166 10.875 3.75003 10.875L17.5313 10.875L12.7013 6.0459C12.4899 5.83455 12.3712 5.54791 12.3712 5.24902C12.3712 4.95014 12.4899 4.66349 12.7013 4.45215C12.9126 4.2408 13.1993 4.12207 13.4982 4.12207C13.797 4.12207 14.0837 4.2408 14.295 4.45215L21.045 11.2022C21.1499 11.3067 21.2331 11.4309 21.2899 11.5676C21.3467 11.7044 21.3759 11.851 21.3759 11.999C21.3759 12.1471 21.3467 12.2937 21.2899 12.4304C21.2331 12.5672 21.1499 12.6914 21.045 12.7959L14.295 19.5459C14.1904 19.6505 14.0661 19.7336 13.9294 19.7902C13.7927 19.8468 13.6461 19.876 13.4982 19.876C13.3502 19.876 13.2036 19.8468 13.0669 19.7902C12.9302 19.7336 12.8059 19.6505 12.7013 19.5459C12.5966 19.4413 12.5136 19.317 12.457 19.1803C12.4004 19.0436 12.3712 18.897 12.3712 18.749C12.3712 18.601 12.4004 18.4545 12.457 18.3178C12.5136 18.181 12.5966 18.0568 12.7013 17.9521L17.5313 13.125L3.75003 13.125C3.45166 13.125 3.16551 13.0064 2.95454 12.7955C2.74356 12.5845 2.62503 12.2983 2.62503 12Z" fill="#444444"/>
</svg>
