<svg width="48" height="48" viewBox="0 0 48 48" fill="none" xmlns="http://www.w3.org/2000/svg">
<path d="M24 20.032C23.2152 20.032 22.448 20.2647 21.7955 20.7007C21.143 21.1367 20.6344 21.7565 20.334 22.4815C20.0337 23.2066 19.9551 24.0044 20.1082 24.7741C20.2614 25.5438 20.6393 26.2509 21.1942 26.8058C21.7491 27.3607 22.4562 27.7386 23.2259 27.8918C23.9956 28.0449 24.7934 27.9663 25.5185 27.666C26.2435 27.3656 26.8633 26.857 27.2993 26.2045C27.7353 25.552 27.968 24.7848 27.968 24C27.968 23.4789 27.8654 22.9629 27.666 22.4815C27.4665 22.0001 27.1743 21.5627 26.8058 21.1942C26.4373 20.8257 25.9999 20.5335 25.5185 20.334C25.0371 20.1346 24.5211 20.032 24 20.032ZM39.888 16.112C39.8796 14.8764 39.6521 13.6521 39.216 12.496C38.8949 11.65 38.398 10.8818 37.7581 10.2419C37.1182 9.60204 36.35 9.10515 35.504 8.784C34.3479 8.34794 33.1236 8.12042 31.888 8.112C29.824 8 29.216 8 24 8C18.784 8 18.176 8 16.112 8.112C14.8764 8.12042 13.6521 8.34794 12.496 8.784C11.65 9.10515 10.8818 9.60204 10.2419 10.2419C9.60204 10.8818 9.10515 11.65 8.784 12.496C8.34794 13.6521 8.12042 14.8764 8.112 16.112C8 18.176 8 18.784 8 24C8 29.216 8 29.824 8.112 31.888C8.12922 33.1279 8.35644 34.356 8.784 35.52C9.10372 36.3621 9.60021 37.1259 10.24 37.76C10.8771 38.4037 11.647 38.9006 12.496 39.216C13.6521 39.6521 14.8764 39.8796 16.112 39.888C18.176 40 18.784 40 24 40C29.216 40 29.824 40 31.888 39.888C33.1236 39.8796 34.3479 39.6521 35.504 39.216C36.353 38.9006 37.1229 38.4037 37.76 37.76C38.3998 37.1259 38.8963 36.3621 39.216 35.52C39.6516 34.3582 39.8791 33.1287 39.888 31.888C40 29.824 40 29.216 40 24C40 18.784 40 18.176 39.888 16.112ZM35.824 28.912C35.7727 29.8994 35.5619 30.8719 35.2 31.792C34.8894 32.5595 34.4276 33.2567 33.8422 33.8422C33.2567 34.4276 32.5595 34.8894 31.792 35.2C30.8632 35.5418 29.8852 35.7309 28.896 35.76H19.104C18.1148 35.7309 17.1368 35.5418 16.208 35.2C15.4146 34.9051 14.698 34.4348 14.112 33.824C13.5323 33.25 13.0846 32.5566 12.8 31.792C12.4569 30.8642 12.273 29.8851 12.256 28.896V19.104C12.273 18.1149 12.4569 17.1358 12.8 16.208C13.0949 15.4146 13.5652 14.698 14.176 14.112C14.7525 13.5354 15.4452 13.0882 16.208 12.8C17.1368 12.4582 18.1148 12.2691 19.104 12.24H28.896C29.8852 12.2691 30.8632 12.4582 31.792 12.8C32.5854 13.0949 33.302 13.5652 33.888 14.176C34.4677 14.75 34.9154 15.4434 35.2 16.208C35.5418 17.1368 35.7309 18.1148 35.76 19.104V24C35.76 27.296 35.872 27.632 35.824 28.896V28.912ZM33.264 17.008C33.0735 16.4912 32.7731 16.0218 32.3837 15.6323C31.9942 15.2429 31.5248 14.9425 31.008 14.752C30.2984 14.506 29.551 14.3869 28.8 14.4H19.2C18.4452 14.4074 17.6977 14.5482 16.992 14.816C16.4831 14.9979 16.0187 15.2859 15.6297 15.6611C15.2408 16.0363 14.9361 16.49 14.736 16.992C14.5036 17.7046 14.3901 18.4506 14.4 19.2V28.8C14.4159 29.5539 14.5564 30.3 14.816 31.008C15.0065 31.5248 15.3069 31.9942 15.6963 32.3837C16.0858 32.7731 16.5552 33.0735 17.072 33.264C17.7547 33.5151 18.473 33.6555 19.2 33.68H28.8C29.5548 33.6726 30.3023 33.5318 31.008 33.264C31.5248 33.0735 31.9942 32.7731 32.3837 32.3837C32.7731 31.9942 33.0735 31.5248 33.264 31.008C33.5318 30.3023 33.6726 29.5548 33.68 28.8V19.2C33.6805 18.4445 33.5394 17.6956 33.264 16.992V17.008ZM24 30.112C23.1981 30.112 22.4041 29.9538 21.6635 29.6464C20.9228 29.3391 20.2501 28.8886 19.6838 28.3209C19.1175 27.7531 18.6688 27.0792 18.3634 26.3378C18.058 25.5963 17.9019 24.8019 17.904 24C17.904 22.7905 18.2629 21.6082 18.9352 20.6027C19.6075 19.5972 20.563 18.8139 21.6807 18.3517C22.7985 17.8896 24.0282 17.7695 25.2143 18.0066C26.4003 18.2438 27.4894 18.8275 28.3435 19.6839C29.1976 20.5402 29.7785 21.6308 30.0125 22.8174C30.2465 24.0041 30.1232 25.2335 29.6581 26.3501C29.1931 27.4666 28.4072 28.4201 27.4 29.0897C26.3928 29.7594 25.2095 30.1152 24 30.112ZM30.4 19.088C30.0463 19.0506 29.719 18.8836 29.4811 18.6192C29.2432 18.3548 29.1116 18.0117 29.1116 17.656C29.1116 17.3003 29.2432 16.9572 29.4811 16.6928C29.719 16.4284 30.0463 16.2614 30.4 16.224C30.7537 16.2614 31.081 16.4284 31.3189 16.6928C31.5568 16.9572 31.6884 17.3003 31.6884 17.656C31.6884 18.0117 31.5568 18.3548 31.3189 18.6192C31.081 18.8836 30.7537 19.0506 30.4 19.088Z" fill="#24C6A9"/>
</svg>
