<svg width="24" height="25" viewBox="0 0 24 25" fill="none" xmlns="http://www.w3.org/2000/svg">
<path d="M12 12.5C10.9 12.5 9.95833 12.1083 9.175 11.325C8.39167 10.5417 8 9.6 8 8.5C8 7.4 8.39167 6.45833 9.175 5.675C9.95833 4.89167 10.9 4.5 12 4.5C13.1 4.5 14.0417 4.89167 14.825 5.675C15.6083 6.45833 16 7.4 16 8.5C16 9.6 15.6083 10.5417 14.825 11.325C14.0417 12.1083 13.1 12.5 12 12.5ZM4 20.5V17.7C4 17.1333 4.146 16.6127 4.438 16.138C4.73 15.6633 5.11733 15.3007 5.6 15.05C6.63333 14.5333 7.68333 14.146 8.75 13.888C9.81667 13.63 10.9 13.5007 12 13.5C13.1 13.4993 14.1833 13.6287 15.25 13.888C16.3167 14.1473 17.3667 14.5347 18.4 15.05C18.8833 15.3 19.271 15.6627 19.563 16.138C19.855 16.6133 20.0007 17.134 20 17.7V20.5H4Z" fill="#777777"/>
</svg>
