<svg width="34" height="14" viewBox="0 0 34 14" fill="none" xmlns="http://www.w3.org/2000/svg">
<path fill-rule="evenodd" clip-rule="evenodd" d="M24.3536 2.14645C24.1583 1.95118 23.8417 1.95118 23.6464 2.14645C23.4512 2.34171 23.4512 2.65829 23.6464 2.85355L27.2929 6.5H4.5C4.22386 6.5 4 6.72386 4 7C4 7.27614 4.22386 7.5 4.5 7.5H27.2929L23.6464 11.1464C23.4512 11.3417 23.4512 11.6583 23.6464 11.8536C23.8417 12.0488 24.1583 12.0488 24.3536 11.8536L28.8536 7.35355C28.9015 7.30562 28.9377 7.25036 28.9621 7.19139C28.9842 7.13777 28.9967 7.08107 28.9994 7.02399C28.9998 7.016 29 7.008 29 7M28.9621 6.80861C28.9377 6.74964 28.9015 6.69439 28.8536 6.64645L24.3536 2.14645M28.9621 6.80861C28.9854 6.86488 28.9988 6.92634 28.9999 6.99077Z" fill="#222222"/>
</svg>
