<svg width="24" height="25" viewBox="0 0 24 25" fill="none" xmlns="http://www.w3.org/2000/svg">
<path d="M19 4.5H17V3.5C17 3.23478 16.8946 2.98043 16.7071 2.79289C16.5196 2.60536 16.2652 2.5 16 2.5C15.7348 2.5 15.4804 2.60536 15.2929 2.79289C15.1054 2.98043 15 3.23478 15 3.5V4.5H9V3.5C9 3.23478 8.89464 2.98043 8.70711 2.79289C8.51957 2.60536 8.26522 2.5 8 2.5C7.73478 2.5 7.48043 2.60536 7.29289 2.79289C7.10536 2.98043 7 3.23478 7 3.5V4.5H5C4.20435 4.5 3.44129 4.81607 2.87868 5.37868C2.31607 5.94129 2 6.70435 2 7.5V19.5C2 20.2956 2.31607 21.0587 2.87868 21.6213C3.44129 22.1839 4.20435 22.5 5 22.5H19C19.7956 22.5 20.5587 22.1839 21.1213 21.6213C21.6839 21.0587 22 20.2956 22 19.5V7.5C22 6.70435 21.6839 5.94129 21.1213 5.37868C20.5587 4.81607 19.7956 4.5 19 4.5ZM20 19.5C20 19.7652 19.8946 20.0196 19.7071 20.2071C19.5196 20.3946 19.2652 20.5 19 20.5H5C4.73478 20.5 4.48043 20.3946 4.29289 20.2071C4.10536 20.0196 4 19.7652 4 19.5V12.5H20V19.5ZM20 10.5H4V7.5C4 7.23478 4.10536 6.98043 4.29289 6.79289C4.48043 6.60536 4.73478 6.5 5 6.5H7V7.5C7 7.76522 7.10536 8.01957 7.29289 8.20711C7.48043 8.39464 7.73478 8.5 8 8.5C8.26522 8.5 8.51957 8.39464 8.70711 8.20711C8.89464 8.01957 9 7.76522 9 7.5V6.5H15V7.5C15 7.76522 15.1054 8.01957 15.2929 8.20711C15.4804 8.39464 15.7348 8.5 16 8.5C16.2652 8.5 16.5196 8.39464 16.7071 8.20711C16.8946 8.01957 17 7.76522 17 7.5V6.5H19C19.2652 6.5 19.5196 6.60536 19.7071 6.79289C19.8946 6.98043 20 7.23478 20 7.5V10.5Z" fill="#24C6A9"/>
</svg>
