<svg width="62" height="26" viewBox="0 0 62 26" fill="none" xmlns="http://www.w3.org/2000/svg">
<path d="M1 12C1 5.92487 5.92487 1 12 1H50C56.0751 1 61 5.92487 61 12V14C61 20.0751 56.0751 25 50 25H1V12Z" stroke="#EE378A" stroke-width="2"/>
<path d="M20.4312 10.8516C20.1748 9.48193 19.0396 8.72021 17.6919 8.72754C15.8608 8.72021 14.5059 10.1265 14.4985 12.6973C14.5059 15.2827 15.8682 16.6743 17.6919 16.667C19.0249 16.6743 20.1528 15.9272 20.4312 14.5723L22.0571 14.5869C21.7202 16.6816 20.0137 18.1465 17.6772 18.1465C14.916 18.1465 12.9019 16.0884 12.9019 12.6973C12.9019 9.30615 14.9307 7.24805 17.6772 7.24805C19.9185 7.24805 21.6982 8.57373 22.0571 10.8516H20.4312ZM25.2358 7.39453V18H23.6685V7.39453H25.2358ZM27.1401 18V10.0459H28.7075V18H27.1401ZM26.9351 7.89258C26.9424 7.37988 27.3892 6.96973 27.9312 6.96973C28.4658 6.96973 28.9126 7.37988 28.9126 7.89258C28.9126 8.40527 28.4658 8.82275 27.9312 8.81543C27.3892 8.82275 26.9424 8.40527 26.9351 7.89258ZM33.981 18.1611C31.6592 18.1611 30.2529 16.4546 30.2603 14.0596C30.2529 11.6353 31.7104 9.94336 33.9517 9.94336C35.7681 9.94336 37.0791 11.0127 37.2476 12.624H35.7241C35.563 11.877 34.9697 11.2544 33.981 11.2471C32.6919 11.2544 31.8276 12.3237 31.8276 14.0156C31.8276 15.7588 32.6699 16.8354 33.981 16.8281C34.8672 16.8354 35.5264 16.3374 35.7241 15.4805H37.2476C37.0791 17.0259 35.856 18.1611 33.981 18.1611ZM38.7271 18V7.39453H40.2944V13.4004H40.4263L43.5757 10.0459H45.4507L42.2354 13.459L45.6704 18H43.7515L41.0488 14.4258L40.2944 15.1729V18H38.7271ZM48.6294 7.39453L48.4976 14.9385H47.0474L46.9155 7.39453H48.6294ZM46.7397 17.0625C46.7324 16.4912 47.2085 16.0225 47.7798 16.0225C48.3438 16.0225 48.8125 16.4912 48.8198 17.0625C48.8125 17.6338 48.3438 18.0952 47.7798 18.1025C47.2085 18.0952 46.7324 17.6338 46.7397 17.0625Z" fill="#EE378A"/>
</svg>
